# xmcd
#
# Track frame offsets: 
#        150
#        16174
#        35098
#        51850
#        69965
#        88849
#        105659
#        122276
#        150800
#        166172
#        183027
#        199838
#        218242
#        235709
#        253596
#
# Disc length: 3546 seconds
#
# Revision: 0
# Processed by: cddbd v1.5.2PL0 Copyright (c) Steve Scherf et al.
# Submitted via: ExactAudioCopy v0.99pb4
#
DISCID=b40dd80f
DTITLE=John Ellison - Up From Funk [CD2]
DYEAR=1969
DGENRE=Soul
TTITLE0=Magic Touch
TTITLE1=Wild And Free
TTITLE2=I Take That Back
TTITLE3=Mellow Mood
TTITLE4=She's Hot, She's Some Kind Of Wonderful
TTITLE5=I'll Be Loving You
TTITLE6=Money Is Freedom
TTITLE7=We Can Work It Out
TTITLE8=Sex Is Sex
TTITLE9=Leave Me Alone
TTITLE10=Your Place or Mine
TTITLE11=A Kiss In The Wind
TTITLE12=You Picked The Right Time Baby
TTITLE13=Times Like These
TTITLE14=Let Your Hair Hang Down
EXTD=
EXTT0=
EXTT1=
EXTT2=
EXTT3=
EXTT4=
EXTT5=
EXTT6=
EXTT7=
EXTT8=
EXTT9=
EXTT10=
EXTT11=
EXTT12=
EXTT13=
EXTT14=
PLAYORDER=
